<svg width="1000" height="600" viewBox="0 0 1000 600" fill="none" xmlns="http://www.w3.org/2000/svg">
<rect width="1000" height="600" fill="white"/>
<ellipse cx="44" cy="51.5" rx="11" ry="10.5" fill="#D9D9D9"/>
<ellipse cx="82" cy="51.5" rx="11" ry="10.5" fill="#D9D9D9"/>
<ellipse cx="120" cy="51.5" rx="11" ry="10.5" fill="#D9D9D9"/>
<ellipse cx="158" cy="51.5" rx="11" ry="10.5" fill="#D9D9D9"/>
<ellipse cx="196" cy="51.5" rx="11" ry="10.5" fill="#D9D9D9"/>
<ellipse cx="234" cy="51.5" rx="11" ry="10.5" fill="#D9D9D9"/>
<ellipse cx="272" cy="51.5" rx="11" ry="10.5" fill="#D9D9D9"/>
<ellipse cx="310" cy="51.5" rx="11" ry="10.5" fill="#D9D9D9"/>
<ellipse cx="348" cy="51.5" rx="11" ry="10.5" fill="#D9D9D9"/>
<ellipse cx="386" cy="51.5" rx="11" ry="10.5" fill="#D9D9D9"/>
<ellipse cx="424" cy="51.5" rx="11" ry="10.5" fill="#D9D9D9"/>
<ellipse cx="462" cy="51.5" rx="11" ry="10.5" fill="#D9D9D9"/>
<ellipse cx="500" cy="51.5" rx="11" ry="10.5" fill="#D9D9D9"/>
<ellipse cx="538" cy="51.5" rx="11" ry="10.5" fill="#D9D9D9"/>
<ellipse cx="576" cy="51.5" rx="11" ry="10.5" fill="#D9D9D9"/>
<ellipse cx="614" cy="51.5" rx="11" ry="10.5" fill="#D9D9D9"/>
<ellipse cx="652" cy="51.5" rx="11" ry="10.5" fill="#D9D9D9"/>
<ellipse cx="690" cy="51.5" rx="11" ry="10.5" fill="#D9D9D9"/>
<ellipse cx="728" cy="51.5" rx="11" ry="10.5" fill="#D9D9D9"/>
<ellipse cx="766" cy="51.5" rx="11" ry="10.5" fill="#D9D9D9"/>
<ellipse cx="804" cy="51.5" rx="11" ry="10.5" fill="#D9D9D9"/>
<ellipse cx="842" cy="51.5" rx="11" ry="10.5" fill="#D9D9D9"/>
<ellipse cx="880" cy="51.5" rx="11" ry="10.5" fill="#D9D9D9"/>
<ellipse cx="918" cy="51.5" rx="11" ry="10.5" fill="#D9D9D9"/>
<ellipse cx="956" cy="51.5" rx="11" ry="10.5" fill="#D9D9D9"/>
<ellipse cx="44" cy="267.5" rx="11" ry="10.5" fill="#D9D9D9"/>
<ellipse cx="82" cy="267.5" rx="11" ry="10.5" fill="#D9D9D9"/>
<ellipse cx="120" cy="267.5" rx="11" ry="10.5" fill="#D9D9D9"/>
<ellipse cx="158" cy="267.5" rx="11" ry="10.5" fill="#D9D9D9"/>
<ellipse cx="196" cy="267.5" rx="11" ry="10.5" fill="#D9D9D9"/>
<ellipse cx="234" cy="267.5" rx="11" ry="10.5" fill="#D9D9D9"/>
<ellipse cx="272" cy="267.5" rx="11" ry="10.5" fill="#D9D9D9"/>
<ellipse cx="310" cy="267.5" rx="11" ry="10.5" fill="#D9D9D9"/>
<ellipse cx="348" cy="267.5" rx="11" ry="10.5" fill="#D9D9D9"/>
<ellipse cx="386" cy="267.5" rx="11" ry="10.5" fill="#D9D9D9"/>
<ellipse cx="424" cy="267.5" rx="11" ry="10.5" fill="#D9D9D9"/>
<ellipse cx="462" cy="267.5" rx="11" ry="10.5" fill="#D9D9D9"/>
<ellipse cx="500" cy="267.5" rx="11" ry="10.5" fill="#D9D9D9"/>
<ellipse cx="538" cy="267.5" rx="11" ry="10.5" fill="#D9D9D9"/>
<ellipse cx="576" cy="267.5" rx="11" ry="10.5" fill="#D9D9D9"/>
<ellipse cx="614" cy="267.5" rx="11" ry="10.5" fill="#D9D9D9"/>
<ellipse cx="652" cy="267.5" rx="11" ry="10.5" fill="#D9D9D9"/>
<ellipse cx="690" cy="267.5" rx="11" ry="10.5" fill="#D9D9D9"/>
<ellipse cx="728" cy="267.5" rx="11" ry="10.5" fill="#D9D9D9"/>
<ellipse cx="766" cy="267.5" rx="11" ry="10.5" fill="#D9D9D9"/>
<ellipse cx="804" cy="267.5" rx="11" ry="10.5" fill="#D9D9D9"/>
<ellipse cx="842" cy="267.5" rx="11" ry="10.5" fill="#D9D9D9"/>
<ellipse cx="880" cy="267.5" rx="11" ry="10.5" fill="#D9D9D9"/>
<ellipse cx="918" cy="267.5" rx="11" ry="10.5" fill="#D9D9D9"/>
<ellipse cx="956" cy="267.5" rx="11" ry="10.5" fill="#D9D9D9"/>
<ellipse cx="44" cy="159.5" rx="11" ry="10.5" fill="#D9D9D9"/>
<ellipse cx="82" cy="159.5" rx="11" ry="10.5" fill="#D9D9D9"/>
<ellipse cx="120" cy="159.5" rx="11" ry="10.5" fill="#D9D9D9"/>
<ellipse cx="158" cy="159.5" rx="11" ry="10.5" fill="#D9D9D9"/>
<ellipse cx="196" cy="159.5" rx="11" ry="10.5" fill="#D9D9D9"/>
<ellipse cx="234" cy="159.5" rx="11" ry="10.5" fill="#D9D9D9"/>
<ellipse cx="272" cy="159.5" rx="11" ry="10.5" fill="#D9D9D9"/>
<ellipse cx="310" cy="159.5" rx="11" ry="10.5" fill="#D9D9D9"/>
<ellipse cx="348" cy="159.5" rx="11" ry="10.5" fill="#D9D9D9"/>
<ellipse cx="386" cy="159.5" rx="11" ry="10.5" fill="#D9D9D9"/>
<ellipse cx="424" cy="159.5" rx="11" ry="10.5" fill="#D9D9D9"/>
<ellipse cx="462" cy="159.5" rx="11" ry="10.5" fill="#D9D9D9"/>
<ellipse cx="500" cy="159.5" rx="11" ry="10.5" fill="#D9D9D9"/>
<ellipse cx="538" cy="159.5" rx="11" ry="10.5" fill="#D9D9D9"/>
<ellipse cx="576" cy="159.5" rx="11" ry="10.5" fill="#D9D9D9"/>
<ellipse cx="614" cy="159.5" rx="11" ry="10.5" fill="#D9D9D9"/>
<ellipse cx="652" cy="159.5" rx="11" ry="10.5" fill="#D9D9D9"/>
<ellipse cx="690" cy="159.5" rx="11" ry="10.5" fill="#D9D9D9"/>
<ellipse cx="728" cy="159.5" rx="11" ry="10.5" fill="#D9D9D9"/>
<ellipse cx="766" cy="159.5" rx="11" ry="10.5" fill="#D9D9D9"/>
<ellipse cx="804" cy="159.5" rx="11" ry="10.5" fill="#D9D9D9"/>
<ellipse cx="842" cy="159.5" rx="11" ry="10.5" fill="#D9D9D9"/>
<ellipse cx="880" cy="159.5" rx="11" ry="10.5" fill="#D9D9D9"/>
<ellipse cx="918" cy="159.5" rx="11" ry="10.5" fill="#D9D9D9"/>
<ellipse cx="956" cy="159.5" rx="11" ry="10.5" fill="#D9D9D9"/>
<ellipse cx="44" cy="375.5" rx="11" ry="10.5" fill="#D9D9D9"/>
<ellipse cx="82" cy="375.5" rx="11" ry="10.5" fill="#D9D9D9"/>
<ellipse cx="120" cy="375.5" rx="11" ry="10.5" fill="#D9D9D9"/>
<ellipse cx="158" cy="375.5" rx="11" ry="10.5" fill="#D9D9D9"/>
<ellipse cx="196" cy="375.5" rx="11" ry="10.5" fill="#D9D9D9"/>
<ellipse cx="234" cy="375.5" rx="11" ry="10.5" fill="#D9D9D9"/>
<ellipse cx="272" cy="375.5" rx="11" ry="10.5" fill="#D9D9D9"/>
<ellipse cx="310" cy="375.5" rx="11" ry="10.5" fill="#D9D9D9"/>
<ellipse cx="348" cy="375.5" rx="11" ry="10.5" fill="#D9D9D9"/>
<ellipse cx="386" cy="375.5" rx="11" ry="10.5" fill="#D9D9D9"/>
<ellipse cx="424" cy="375.5" rx="11" ry="10.5" fill="#D9D9D9"/>
<ellipse cx="462" cy="375.5" rx="11" ry="10.5" fill="#D9D9D9"/>
<ellipse cx="500" cy="375.5" rx="11" ry="10.5" fill="#D9D9D9"/>
<ellipse cx="538" cy="375.5" rx="11" ry="10.5" fill="#D9D9D9"/>
<ellipse cx="576" cy="375.5" rx="11" ry="10.5" fill="#D9D9D9"/>
<ellipse cx="614" cy="375.5" rx="11" ry="10.5" fill="#D9D9D9"/>
<ellipse cx="652" cy="375.5" rx="11" ry="10.5" fill="#D9D9D9"/>
<ellipse cx="690" cy="375.5" rx="11" ry="10.5" fill="#D9D9D9"/>
<ellipse cx="728" cy="375.5" rx="11" ry="10.5" fill="#D9D9D9"/>
<ellipse cx="766" cy="375.5" rx="11" ry="10.5" fill="#D9D9D9"/>
<ellipse cx="804" cy="375.5" rx="11" ry="10.5" fill="#D9D9D9"/>
<ellipse cx="842" cy="375.5" rx="11" ry="10.5" fill="#D9D9D9"/>
<ellipse cx="880" cy="375.5" rx="11" ry="10.5" fill="#D9D9D9"/>
<ellipse cx="918" cy="375.5" rx="11" ry="10.5" fill="#D9D9D9"/>
<ellipse cx="956" cy="375.5" rx="11" ry="10.5" fill="#D9D9D9"/>
<ellipse cx="44" cy="105.5" rx="11" ry="10.5" fill="#D9D9D9"/>
<ellipse cx="82" cy="105.5" rx="11" ry="10.5" fill="#D9D9D9"/>
<ellipse cx="120" cy="105.5" rx="11" ry="10.5" fill="#D9D9D9"/>
<ellipse cx="158" cy="105.5" rx="11" ry="10.5" fill="#D9D9D9"/>
<ellipse cx="196" cy="105.5" rx="11" ry="10.5" fill="#D9D9D9"/>
<ellipse cx="234" cy="105.5" rx="11" ry="10.5" fill="#D9D9D9"/>
<ellipse cx="272" cy="105.5" rx="11" ry="10.5" fill="#D9D9D9"/>
<ellipse cx="310" cy="105.5" rx="11" ry="10.5" fill="#D9D9D9"/>
<ellipse cx="348" cy="105.5" rx="11" ry="10.5" fill="#D9D9D9"/>
<ellipse cx="386" cy="105.5" rx="11" ry="10.5" fill="#D9D9D9"/>
<ellipse cx="424" cy="105.5" rx="11" ry="10.5" fill="#D9D9D9"/>
<ellipse cx="462" cy="105.5" rx="11" ry="10.5" fill="#D9D9D9"/>
<ellipse cx="500" cy="105.5" rx="11" ry="10.5" fill="#D9D9D9"/>
<ellipse cx="538" cy="105.5" rx="11" ry="10.5" fill="#D9D9D9"/>
<ellipse cx="576" cy="105.5" rx="11" ry="10.5" fill="#D9D9D9"/>
<ellipse cx="614" cy="105.5" rx="11" ry="10.5" fill="#D9D9D9"/>
<ellipse cx="652" cy="105.5" rx="11" ry="10.5" fill="#D9D9D9"/>
<ellipse cx="690" cy="105.5" rx="11" ry="10.5" fill="#D9D9D9"/>
<ellipse cx="728" cy="105.5" rx="11" ry="10.5" fill="#D9D9D9"/>
<ellipse cx="766" cy="105.5" rx="11" ry="10.5" fill="#D9D9D9"/>
<ellipse cx="804" cy="105.5" rx="11" ry="10.5" fill="#D9D9D9"/>
<ellipse cx="842" cy="105.5" rx="11" ry="10.5" fill="#D9D9D9"/>
<ellipse cx="880" cy="105.5" rx="11" ry="10.5" fill="#D9D9D9"/>
<ellipse cx="918" cy="105.5" rx="11" ry="10.5" fill="#D9D9D9"/>
<ellipse cx="956" cy="105.5" rx="11" ry="10.5" fill="#D9D9D9"/>
<ellipse cx="44" cy="321.5" rx="11" ry="10.5" fill="#D9D9D9"/>
<ellipse cx="82" cy="321.5" rx="11" ry="10.5" fill="#D9D9D9"/>
<ellipse cx="120" cy="321.5" rx="11" ry="10.5" fill="#D9D9D9"/>
<ellipse cx="158" cy="321.5" rx="11" ry="10.5" fill="#D9D9D9"/>
<ellipse cx="196" cy="321.5" rx="11" ry="10.5" fill="#D9D9D9"/>
<ellipse cx="234" cy="321.5" rx="11" ry="10.5" fill="#D9D9D9"/>
<ellipse cx="272" cy="321.5" rx="11" ry="10.5" fill="#D9D9D9"/>
<ellipse cx="310" cy="321.5" rx="11" ry="10.5" fill="#D9D9D9"/>
<ellipse cx="348" cy="321.5" rx="11" ry="10.5" fill="#D9D9D9"/>
<ellipse cx="386" cy="321.5" rx="11" ry="10.5" fill="#D9D9D9"/>
<ellipse cx="424" cy="321.5" rx="11" ry="10.5" fill="#D9D9D9"/>
<ellipse cx="462" cy="321.5" rx="11" ry="10.5" fill="#D9D9D9"/>
<ellipse cx="500" cy="321.5" rx="11" ry="10.5" fill="#D9D9D9"/>
<ellipse cx="538" cy="321.5" rx="11" ry="10.5" fill="#D9D9D9"/>
<ellipse cx="576" cy="321.5" rx="11" ry="10.5" fill="#D9D9D9"/>
<ellipse cx="614" cy="321.5" rx="11" ry="10.5" fill="#D9D9D9"/>
<ellipse cx="652" cy="321.5" rx="11" ry="10.5" fill="#D9D9D9"/>
<ellipse cx="690" cy="321.5" rx="11" ry="10.5" fill="#D9D9D9"/>
<ellipse cx="728" cy="321.5" rx="11" ry="10.5" fill="#D9D9D9"/>
<ellipse cx="766" cy="321.5" rx="11" ry="10.5" fill="#D9D9D9"/>
<ellipse cx="804" cy="321.5" rx="11" ry="10.5" fill="#D9D9D9"/>
<ellipse cx="842" cy="321.5" rx="11" ry="10.5" fill="#D9D9D9"/>
<ellipse cx="880" cy="321.5" rx="11" ry="10.5" fill="#D9D9D9"/>
<ellipse cx="918" cy="321.5" rx="11" ry="10.5" fill="#D9D9D9"/>
<ellipse cx="956" cy="321.5" rx="11" ry="10.5" fill="#D9D9D9"/>
<ellipse cx="44" cy="213.5" rx="11" ry="10.5" fill="#D9D9D9"/>
<ellipse cx="82" cy="213.5" rx="11" ry="10.5" fill="#D9D9D9"/>
<ellipse cx="120" cy="213.5" rx="11" ry="10.5" fill="#D9D9D9"/>
<ellipse cx="158" cy="213.5" rx="11" ry="10.5" fill="#D9D9D9"/>
<ellipse cx="196" cy="213.5" rx="11" ry="10.5" fill="#D9D9D9"/>
<ellipse cx="234" cy="213.5" rx="11" ry="10.5" fill="#D9D9D9"/>
<ellipse cx="272" cy="213.5" rx="11" ry="10.5" fill="#D9D9D9"/>
<ellipse cx="310" cy="213.5" rx="11" ry="10.5" fill="#D9D9D9"/>
<ellipse cx="348" cy="213.5" rx="11" ry="10.5" fill="#D9D9D9"/>
<ellipse cx="386" cy="213.5" rx="11" ry="10.5" fill="#D9D9D9"/>
<ellipse cx="424" cy="213.5" rx="11" ry="10.5" fill="#D9D9D9"/>
<ellipse cx="462" cy="213.5" rx="11" ry="10.5" fill="#D9D9D9"/>
<ellipse cx="500" cy="213.5" rx="11" ry="10.5" fill="#D9D9D9"/>
<ellipse cx="538" cy="213.5" rx="11" ry="10.5" fill="#D9D9D9"/>
<ellipse cx="576" cy="213.5" rx="11" ry="10.5" fill="#D9D9D9"/>
<ellipse cx="614" cy="213.5" rx="11" ry="10.5" fill="#D9D9D9"/>
<ellipse cx="652" cy="213.5" rx="11" ry="10.5" fill="#D9D9D9"/>
<ellipse cx="690" cy="213.5" rx="11" ry="10.5" fill="#D9D9D9"/>
<ellipse cx="728" cy="213.5" rx="11" ry="10.5" fill="#D9D9D9"/>
<ellipse cx="766" cy="213.5" rx="11" ry="10.5" fill="#D9D9D9"/>
<ellipse cx="804" cy="213.5" rx="11" ry="10.5" fill="#D9D9D9"/>
<ellipse cx="842" cy="213.5" rx="11" ry="10.5" fill="#D9D9D9"/>
<ellipse cx="880" cy="213.5" rx="11" ry="10.5" fill="#D9D9D9"/>
<ellipse cx="918" cy="213.5" rx="11" ry="10.5" fill="#D9D9D9"/>
<ellipse cx="956" cy="213.5" rx="11" ry="10.5" fill="#D9D9D9"/>
<path d="M55 429.5C55 435.299 50.0751 440 44 440C37.9249 440 33 435.299 33 429.5C33 423.701 37.9249 419 44 419C50.0751 419 55 423.701 55 429.5Z" fill="#D9D9D9"/>
<ellipse cx="82" cy="429.5" rx="11" ry="10.5" fill="#D9D9D9"/>
<ellipse cx="120" cy="429.5" rx="11" ry="10.5" fill="#D9D9D9"/>
<ellipse cx="158" cy="429.5" rx="11" ry="10.5" fill="#D9D9D9"/>
<ellipse cx="196" cy="429.5" rx="11" ry="10.5" fill="#D9D9D9"/>
<ellipse cx="234" cy="429.5" rx="11" ry="10.5" fill="#D9D9D9"/>
<ellipse cx="272" cy="429.5" rx="11" ry="10.5" fill="#D9D9D9"/>
<ellipse cx="310" cy="429.5" rx="11" ry="10.5" fill="#D9D9D9"/>
<ellipse cx="348" cy="429.5" rx="11" ry="10.5" fill="#D9D9D9"/>
<ellipse cx="386" cy="429.5" rx="11" ry="10.5" fill="#D9D9D9"/>
<ellipse cx="424" cy="429.5" rx="11" ry="10.5" fill="#D9D9D9"/>
<ellipse cx="462" cy="429.5" rx="11" ry="10.5" fill="#D9D9D9"/>
<ellipse cx="500" cy="429.5" rx="11" ry="10.5" fill="#D9D9D9"/>
<ellipse cx="538" cy="429.5" rx="11" ry="10.5" fill="#D9D9D9"/>
<ellipse cx="576" cy="429.5" rx="11" ry="10.5" fill="#D9D9D9"/>
<ellipse cx="614" cy="429.5" rx="11" ry="10.5" fill="#D9D9D9"/>
<ellipse cx="652" cy="429.5" rx="11" ry="10.5" fill="#D9D9D9"/>
<ellipse cx="690" cy="429.5" rx="11" ry="10.5" fill="#D9D9D9"/>
<ellipse cx="728" cy="429.5" rx="11" ry="10.5" fill="#D9D9D9"/>
<ellipse cx="766" cy="429.5" rx="11" ry="10.5" fill="#D9D9D9"/>
<ellipse cx="804" cy="429.5" rx="11" ry="10.5" fill="#D9D9D9"/>
<ellipse cx="842" cy="429.5" rx="11" ry="10.5" fill="#D9D9D9"/>
<ellipse cx="880" cy="429.5" rx="11" ry="10.5" fill="#D9D9D9"/>
<ellipse cx="918" cy="429.5" rx="11" ry="10.5" fill="#D9D9D9"/>
<ellipse cx="956" cy="429.5" rx="11" ry="10.5" fill="#D9D9D9"/>
<ellipse cx="44" cy="78.5" rx="11" ry="10.5" fill="#D9D9D9"/>
<ellipse cx="82" cy="78.5" rx="11" ry="10.5" fill="#D9D9D9"/>
<ellipse cx="120" cy="78.5" rx="11" ry="10.5" fill="#D9D9D9"/>
<ellipse cx="158" cy="78.5" rx="11" ry="10.5" fill="#D9D9D9"/>
<ellipse cx="196" cy="78.5" rx="11" ry="10.5" fill="#D9D9D9"/>
<ellipse cx="234" cy="78.5" rx="11" ry="10.5" fill="#D9D9D9"/>
<ellipse cx="272" cy="78.5" rx="11" ry="10.5" fill="#D9D9D9"/>
<ellipse cx="310" cy="78.5" rx="11" ry="10.5" fill="#D9D9D9"/>
<ellipse cx="348" cy="78.5" rx="11" ry="10.5" fill="#D9D9D9"/>
<ellipse cx="386" cy="78.5" rx="11" ry="10.5" fill="#D9D9D9"/>
<ellipse cx="424" cy="78.5" rx="11" ry="10.5" fill="#D9D9D9"/>
<ellipse cx="462" cy="78.5" rx="11" ry="10.5" fill="#D9D9D9"/>
<ellipse cx="500" cy="78.5" rx="11" ry="10.5" fill="#D9D9D9"/>
<ellipse cx="538" cy="78.5" rx="11" ry="10.5" fill="#D9D9D9"/>
<ellipse cx="576" cy="78.5" rx="11" ry="10.5" fill="#D9D9D9"/>
<ellipse cx="614" cy="78.5" rx="11" ry="10.5" fill="#D9D9D9"/>
<ellipse cx="652" cy="78.5" rx="11" ry="10.5" fill="#D9D9D9"/>
<ellipse cx="690" cy="78.5" rx="11" ry="10.5" fill="#D9D9D9"/>
<ellipse cx="728" cy="78.5" rx="11" ry="10.5" fill="#D9D9D9"/>
<ellipse cx="766" cy="78.5" rx="11" ry="10.5" fill="#D9D9D9"/>
<ellipse cx="804" cy="78.5" rx="11" ry="10.5" fill="#D9D9D9"/>
<ellipse cx="842" cy="78.5" rx="11" ry="10.5" fill="#D9D9D9"/>
<ellipse cx="880" cy="78.5" rx="11" ry="10.5" fill="#D9D9D9"/>
<ellipse cx="918" cy="78.5" rx="11" ry="10.5" fill="#D9D9D9"/>
<ellipse cx="956" cy="78.5" rx="11" ry="10.5" fill="#D9D9D9"/>
<ellipse cx="44" cy="294.5" rx="11" ry="10.5" fill="#D9D9D9"/>
<ellipse cx="82" cy="294.5" rx="11" ry="10.5" fill="#D9D9D9"/>
<ellipse cx="120" cy="294.5" rx="11" ry="10.5" fill="#D9D9D9"/>
<ellipse cx="158" cy="294.5" rx="11" ry="10.5" fill="#D9D9D9"/>
<ellipse cx="196" cy="294.5" rx="11" ry="10.5" fill="#D9D9D9"/>
<ellipse cx="234" cy="294.5" rx="11" ry="10.5" fill="#D9D9D9"/>
<ellipse cx="272" cy="294.5" rx="11" ry="10.5" fill="#D9D9D9"/>
<ellipse cx="310" cy="294.5" rx="11" ry="10.5" fill="#D9D9D9"/>
<ellipse cx="348" cy="294.5" rx="11" ry="10.5" fill="#D9D9D9"/>
<ellipse cx="386" cy="294.5" rx="11" ry="10.5" fill="#D9D9D9"/>
<ellipse cx="424" cy="294.5" rx="11" ry="10.5" fill="#D9D9D9"/>
<ellipse cx="462" cy="294.5" rx="11" ry="10.5" fill="#D9D9D9"/>
<ellipse cx="500" cy="294.5" rx="11" ry="10.5" fill="#D9D9D9"/>
<ellipse cx="538" cy="294.5" rx="11" ry="10.5" fill="#D9D9D9"/>
<ellipse cx="576" cy="294.5" rx="11" ry="10.5" fill="#D9D9D9"/>
<ellipse cx="614" cy="294.5" rx="11" ry="10.5" fill="#D9D9D9"/>
<ellipse cx="652" cy="294.5" rx="11" ry="10.5" fill="#D9D9D9"/>
<ellipse cx="690" cy="294.5" rx="11" ry="10.5" fill="#D9D9D9"/>
<ellipse cx="728" cy="294.5" rx="11" ry="10.5" fill="#D9D9D9"/>
<ellipse cx="766" cy="294.5" rx="11" ry="10.5" fill="#D9D9D9"/>
<ellipse cx="804" cy="294.5" rx="11" ry="10.5" fill="#D9D9D9"/>
<ellipse cx="842" cy="294.5" rx="11" ry="10.5" fill="#D9D9D9"/>
<ellipse cx="880" cy="294.5" rx="11" ry="10.5" fill="#D9D9D9"/>
<ellipse cx="918" cy="294.5" rx="11" ry="10.5" fill="#D9D9D9"/>
<ellipse cx="956" cy="294.5" rx="11" ry="10.5" fill="#D9D9D9"/>
<ellipse cx="44" cy="186.5" rx="11" ry="10.5" fill="#D9D9D9"/>
<ellipse cx="82" cy="186.5" rx="11" ry="10.5" fill="#D9D9D9"/>
<ellipse cx="120" cy="186.5" rx="11" ry="10.5" fill="#D9D9D9"/>
<ellipse cx="158" cy="186.5" rx="11" ry="10.5" fill="#D9D9D9"/>
<ellipse cx="196" cy="186.5" rx="11" ry="10.5" fill="#D9D9D9"/>
<ellipse cx="234" cy="186.5" rx="11" ry="10.5" fill="#D9D9D9"/>
<ellipse cx="272" cy="186.5" rx="11" ry="10.5" fill="#D9D9D9"/>
<ellipse cx="310" cy="186.5" rx="11" ry="10.5" fill="#D9D9D9"/>
<ellipse cx="348" cy="186.5" rx="11" ry="10.5" fill="#D9D9D9"/>
<ellipse cx="386" cy="186.5" rx="11" ry="10.5" fill="#D9D9D9"/>
<ellipse cx="424" cy="186.5" rx="11" ry="10.5" fill="#D9D9D9"/>
<ellipse cx="462" cy="186.5" rx="11" ry="10.5" fill="#D9D9D9"/>
<ellipse cx="500" cy="186.5" rx="11" ry="10.5" fill="#D9D9D9"/>
<ellipse cx="538" cy="186.5" rx="11" ry="10.5" fill="#D9D9D9"/>
<ellipse cx="576" cy="186.5" rx="11" ry="10.5" fill="#D9D9D9"/>
<ellipse cx="614" cy="186.5" rx="11" ry="10.5" fill="#D9D9D9"/>
<ellipse cx="652" cy="186.5" rx="11" ry="10.5" fill="#D9D9D9"/>
<ellipse cx="690" cy="186.5" rx="11" ry="10.5" fill="#D9D9D9"/>
<ellipse cx="728" cy="186.5" rx="11" ry="10.5" fill="#D9D9D9"/>
<ellipse cx="766" cy="186.5" rx="11" ry="10.5" fill="#D9D9D9"/>
<ellipse cx="804" cy="186.5" rx="11" ry="10.5" fill="#D9D9D9"/>
<ellipse cx="842" cy="186.5" rx="11" ry="10.5" fill="#D9D9D9"/>
<ellipse cx="880" cy="186.5" rx="11" ry="10.5" fill="#D9D9D9"/>
<ellipse cx="918" cy="186.5" rx="11" ry="10.5" fill="#D9D9D9"/>
<ellipse cx="956" cy="186.5" rx="11" ry="10.5" fill="#D9D9D9"/>
<ellipse cx="44" cy="402.5" rx="11" ry="10.5" fill="#D9D9D9"/>
<ellipse cx="82" cy="402.5" rx="11" ry="10.5" fill="#D9D9D9"/>
<ellipse cx="120" cy="402.5" rx="11" ry="10.5" fill="#D9D9D9"/>
<ellipse cx="158" cy="402.5" rx="11" ry="10.5" fill="#D9D9D9"/>
<ellipse cx="196" cy="402.5" rx="11" ry="10.5" fill="#D9D9D9"/>
<ellipse cx="234" cy="402.5" rx="11" ry="10.5" fill="#D9D9D9"/>
<ellipse cx="272" cy="402.5" rx="11" ry="10.5" fill="#D9D9D9"/>
<ellipse cx="310" cy="402.5" rx="11" ry="10.5" fill="#D9D9D9"/>
<ellipse cx="348" cy="402.5" rx="11" ry="10.5" fill="#D9D9D9"/>
<ellipse cx="386" cy="402.5" rx="11" ry="10.5" fill="#D9D9D9"/>
<ellipse cx="424" cy="402.5" rx="11" ry="10.5" fill="#D9D9D9"/>
<ellipse cx="462" cy="402.5" rx="11" ry="10.5" fill="#D9D9D9"/>
<ellipse cx="500" cy="402.5" rx="11" ry="10.5" fill="#D9D9D9"/>
<ellipse cx="538" cy="402.5" rx="11" ry="10.5" fill="#D9D9D9"/>
<ellipse cx="576" cy="402.5" rx="11" ry="10.5" fill="#D9D9D9"/>
<ellipse cx="614" cy="402.5" rx="11" ry="10.5" fill="#D9D9D9"/>
<ellipse cx="652" cy="402.5" rx="11" ry="10.5" fill="#D9D9D9"/>
<ellipse cx="690" cy="402.5" rx="11" ry="10.5" fill="#D9D9D9"/>
<ellipse cx="728" cy="402.5" rx="11" ry="10.5" fill="#D9D9D9"/>
<ellipse cx="766" cy="402.5" rx="11" ry="10.5" fill="#D9D9D9"/>
<ellipse cx="804" cy="402.5" rx="11" ry="10.5" fill="#D9D9D9"/>
<ellipse cx="842" cy="402.5" rx="11" ry="10.5" fill="#D9D9D9"/>
<ellipse cx="880" cy="402.5" rx="11" ry="10.5" fill="#D9D9D9"/>
<ellipse cx="918" cy="402.5" rx="11" ry="10.5" fill="#D9D9D9"/>
<ellipse cx="956" cy="402.5" rx="11" ry="10.5" fill="#D9D9D9"/>
<ellipse cx="44" cy="132.5" rx="11" ry="10.5" fill="#D9D9D9"/>
<ellipse cx="82" cy="132.5" rx="11" ry="10.5" fill="#D9D9D9"/>
<ellipse cx="120" cy="132.5" rx="11" ry="10.5" fill="#D9D9D9"/>
<ellipse cx="158" cy="132.5" rx="11" ry="10.5" fill="#D9D9D9"/>
<ellipse cx="196" cy="132.5" rx="11" ry="10.5" fill="#D9D9D9"/>
<ellipse cx="234" cy="132.5" rx="11" ry="10.5" fill="#D9D9D9"/>
<ellipse cx="272" cy="132.5" rx="11" ry="10.5" fill="#D9D9D9"/>
<ellipse cx="310" cy="132.5" rx="11" ry="10.5" fill="#D9D9D9"/>
<ellipse cx="348" cy="132.5" rx="11" ry="10.5" fill="#D9D9D9"/>
<ellipse cx="386" cy="132.5" rx="11" ry="10.5" fill="#D9D9D9"/>
<ellipse cx="424" cy="132.5" rx="11" ry="10.5" fill="#D9D9D9"/>
<ellipse cx="462" cy="132.5" rx="11" ry="10.5" fill="#D9D9D9"/>
<ellipse cx="500" cy="132.5" rx="11" ry="10.5" fill="#D9D9D9"/>
<ellipse cx="538" cy="132.5" rx="11" ry="10.5" fill="#D9D9D9"/>
<ellipse cx="576" cy="132.5" rx="11" ry="10.5" fill="#D9D9D9"/>
<ellipse cx="614" cy="132.5" rx="11" ry="10.5" fill="#D9D9D9"/>
<ellipse cx="652" cy="132.5" rx="11" ry="10.5" fill="#D9D9D9"/>
<ellipse cx="690" cy="132.5" rx="11" ry="10.5" fill="#D9D9D9"/>
<ellipse cx="728" cy="132.5" rx="11" ry="10.5" fill="#D9D9D9"/>
<ellipse cx="766" cy="132.5" rx="11" ry="10.5" fill="#D9D9D9"/>
<ellipse cx="804" cy="132.5" rx="11" ry="10.5" fill="#D9D9D9"/>
<ellipse cx="842" cy="132.5" rx="11" ry="10.5" fill="#D9D9D9"/>
<ellipse cx="880" cy="132.5" rx="11" ry="10.5" fill="#D9D9D9"/>
<ellipse cx="918" cy="132.5" rx="11" ry="10.5" fill="#D9D9D9"/>
<ellipse cx="956" cy="132.5" rx="11" ry="10.5" fill="#D9D9D9"/>
<ellipse cx="44" cy="348.5" rx="11" ry="10.5" fill="#D9D9D9"/>
<ellipse cx="82" cy="348.5" rx="11" ry="10.5" fill="#D9D9D9"/>
<ellipse cx="120" cy="348.5" rx="11" ry="10.5" fill="#D9D9D9"/>
<ellipse cx="158" cy="348.5" rx="11" ry="10.5" fill="#D9D9D9"/>
<ellipse cx="196" cy="348.5" rx="11" ry="10.5" fill="#D9D9D9"/>
<ellipse cx="234" cy="348.5" rx="11" ry="10.5" fill="#D9D9D9"/>
<ellipse cx="272" cy="348.5" rx="11" ry="10.5" fill="#D9D9D9"/>
<ellipse cx="310" cy="348.5" rx="11" ry="10.5" fill="#D9D9D9"/>
<ellipse cx="348" cy="348.5" rx="11" ry="10.5" fill="#D9D9D9"/>
<ellipse cx="386" cy="348.5" rx="11" ry="10.5" fill="#D9D9D9"/>
<ellipse cx="424" cy="348.5" rx="11" ry="10.5" fill="#D9D9D9"/>
<ellipse cx="462" cy="348.5" rx="11" ry="10.5" fill="#D9D9D9"/>
<ellipse cx="500" cy="348.5" rx="11" ry="10.5" fill="#D9D9D9"/>
<ellipse cx="538" cy="348.5" rx="11" ry="10.5" fill="#D9D9D9"/>
<ellipse cx="576" cy="348.5" rx="11" ry="10.5" fill="#D9D9D9"/>
<ellipse cx="614" cy="348.5" rx="11" ry="10.5" fill="#D9D9D9"/>
<ellipse cx="652" cy="348.5" rx="11" ry="10.5" fill="#D9D9D9"/>
<ellipse cx="690" cy="348.5" rx="11" ry="10.5" fill="#D9D9D9"/>
<ellipse cx="728" cy="348.5" rx="11" ry="10.5" fill="#D9D9D9"/>
<ellipse cx="766" cy="348.5" rx="11" ry="10.5" fill="#D9D9D9"/>
<ellipse cx="804" cy="348.5" rx="11" ry="10.5" fill="#D9D9D9"/>
<ellipse cx="842" cy="348.5" rx="11" ry="10.5" fill="#D9D9D9"/>
<ellipse cx="880" cy="348.5" rx="11" ry="10.5" fill="#D9D9D9"/>
<ellipse cx="918" cy="348.5" rx="11" ry="10.5" fill="#D9D9D9"/>
<ellipse cx="956" cy="348.5" rx="11" ry="10.5" fill="#D9D9D9"/>
<ellipse cx="44" cy="240.5" rx="11" ry="10.5" fill="#D9D9D9"/>
<ellipse cx="82" cy="240.5" rx="11" ry="10.5" fill="#D9D9D9"/>
<ellipse cx="120" cy="240.5" rx="11" ry="10.5" fill="#D9D9D9"/>
<ellipse cx="158" cy="240.5" rx="11" ry="10.5" fill="#D9D9D9"/>
<ellipse cx="196" cy="240.5" rx="11" ry="10.5" fill="#D9D9D9"/>
<ellipse cx="234" cy="240.5" rx="11" ry="10.5" fill="#D9D9D9"/>
<ellipse cx="272" cy="240.5" rx="11" ry="10.5" fill="#D9D9D9"/>
<ellipse cx="310" cy="240.5" rx="11" ry="10.5" fill="#D9D9D9"/>
<ellipse cx="348" cy="240.5" rx="11" ry="10.5" fill="#D9D9D9"/>
<ellipse cx="386" cy="240.5" rx="11" ry="10.5" fill="#D9D9D9"/>
<ellipse cx="424" cy="240.5" rx="11" ry="10.5" fill="#D9D9D9"/>
<ellipse cx="462" cy="240.5" rx="11" ry="10.5" fill="#D9D9D9"/>
<ellipse cx="500" cy="240.5" rx="11" ry="10.5" fill="#D9D9D9"/>
<ellipse cx="538" cy="240.5" rx="11" ry="10.5" fill="#D9D9D9"/>
<ellipse cx="576" cy="240.5" rx="11" ry="10.5" fill="#D9D9D9"/>
<ellipse cx="614" cy="240.5" rx="11" ry="10.5" fill="#D9D9D9"/>
<ellipse cx="652" cy="240.5" rx="11" ry="10.5" fill="#D9D9D9"/>
<ellipse cx="690" cy="240.5" rx="11" ry="10.5" fill="#D9D9D9"/>
<ellipse cx="728" cy="240.5" rx="11" ry="10.5" fill="#D9D9D9"/>
<ellipse cx="766" cy="240.5" rx="11" ry="10.5" fill="#D9D9D9"/>
<ellipse cx="804" cy="240.5" rx="11" ry="10.5" fill="#D9D9D9"/>
<ellipse cx="842" cy="240.5" rx="11" ry="10.5" fill="#D9D9D9"/>
<ellipse cx="880" cy="240.5" rx="11" ry="10.5" fill="#D9D9D9"/>
<ellipse cx="918" cy="240.5" rx="11" ry="10.5" fill="#D9D9D9"/>
<ellipse cx="956" cy="240.5" rx="11" ry="10.5" fill="#D9D9D9"/>
<path d="M475.716 572.091C475.631 571.371 475.285 570.812 474.679 570.415C474.073 570.017 473.33 569.818 472.449 569.818C471.805 569.818 471.241 569.922 470.759 570.131C470.28 570.339 469.906 570.625 469.636 570.99C469.371 571.355 469.239 571.769 469.239 572.233C469.239 572.621 469.331 572.955 469.516 573.234C469.705 573.509 469.946 573.739 470.24 573.923C470.534 574.103 470.841 574.252 471.163 574.371C471.485 574.484 471.781 574.577 472.051 574.648L473.528 575.045C473.907 575.145 474.329 575.282 474.793 575.457C475.261 575.633 475.709 575.872 476.135 576.175C476.566 576.473 476.921 576.857 477.2 577.325C477.48 577.794 477.619 578.369 477.619 579.051C477.619 579.837 477.413 580.547 477.001 581.182C476.594 581.816 475.998 582.321 475.212 582.695C474.43 583.069 473.481 583.256 472.364 583.256C471.322 583.256 470.42 583.088 469.658 582.751C468.9 582.415 468.304 581.946 467.868 581.345C467.437 580.744 467.193 580.045 467.136 579.25H468.955C469.002 579.799 469.187 580.254 469.509 580.614C469.835 580.969 470.247 581.234 470.744 581.409C471.246 581.58 471.786 581.665 472.364 581.665C473.036 581.665 473.64 581.556 474.175 581.338C474.71 581.116 475.134 580.808 475.446 580.415C475.759 580.017 475.915 579.553 475.915 579.023C475.915 578.54 475.78 578.147 475.51 577.844C475.24 577.541 474.885 577.295 474.445 577.105C474.004 576.916 473.528 576.75 473.017 576.608L471.227 576.097C470.091 575.77 469.191 575.304 468.528 574.697C467.866 574.091 467.534 573.298 467.534 572.318C467.534 571.504 467.754 570.794 468.195 570.188C468.64 569.577 469.236 569.103 469.984 568.767C470.737 568.426 471.578 568.256 472.506 568.256C473.443 568.256 474.277 568.424 475.006 568.76C475.735 569.091 476.313 569.546 476.739 570.124C477.17 570.701 477.397 571.357 477.42 572.091H475.716ZM485.032 572.091V573.511H479.379V572.091H485.032ZM481.027 569.477H482.703V579.875C482.703 580.348 482.771 580.704 482.909 580.94C483.051 581.172 483.231 581.329 483.449 581.409C483.671 581.485 483.905 581.523 484.152 581.523C484.336 581.523 484.488 581.513 484.606 581.494C484.725 581.471 484.819 581.452 484.89 581.438L485.231 582.943C485.118 582.986 484.959 583.028 484.755 583.071C484.552 583.118 484.294 583.142 483.981 583.142C483.508 583.142 483.044 583.04 482.589 582.837C482.139 582.633 481.765 582.323 481.467 581.906C481.173 581.49 481.027 580.964 481.027 580.33V569.477ZM490.764 583.256C490.073 583.256 489.445 583.125 488.882 582.865C488.318 582.6 487.871 582.219 487.539 581.722C487.208 581.22 487.042 580.614 487.042 579.903C487.042 579.278 487.165 578.772 487.412 578.384C487.658 577.991 487.987 577.683 488.399 577.46C488.811 577.238 489.265 577.072 489.762 576.963C490.264 576.849 490.769 576.759 491.275 576.693C491.938 576.608 492.475 576.544 492.887 576.501C493.304 576.454 493.607 576.376 493.797 576.267C493.991 576.158 494.088 575.969 494.088 575.699V575.642C494.088 574.941 493.896 574.397 493.512 574.009C493.134 573.62 492.558 573.426 491.787 573.426C490.986 573.426 490.359 573.601 489.904 573.952C489.45 574.302 489.13 574.676 488.946 575.074L487.355 574.506C487.639 573.843 488.018 573.327 488.491 572.957C488.969 572.583 489.49 572.323 490.054 572.176C490.622 572.025 491.181 571.949 491.73 571.949C492.08 571.949 492.483 571.991 492.937 572.077C493.396 572.157 493.839 572.325 494.265 572.581C494.696 572.837 495.054 573.223 495.338 573.739C495.622 574.255 495.764 574.946 495.764 575.812V583H494.088V581.523H494.002C493.889 581.759 493.699 582.013 493.434 582.283C493.169 582.553 492.816 582.782 492.376 582.972C491.936 583.161 491.398 583.256 490.764 583.256ZM491.02 581.75C491.682 581.75 492.241 581.62 492.696 581.359C493.155 581.099 493.501 580.763 493.733 580.351C493.969 579.939 494.088 579.506 494.088 579.051V577.517C494.017 577.602 493.86 577.68 493.619 577.751C493.382 577.818 493.108 577.877 492.795 577.929C492.487 577.976 492.187 578.019 491.893 578.057C491.604 578.09 491.37 578.118 491.19 578.142C490.754 578.199 490.347 578.291 489.968 578.419C489.594 578.542 489.291 578.729 489.059 578.98C488.832 579.226 488.718 579.562 488.718 579.989C488.718 580.571 488.934 581.011 489.365 581.31C489.8 581.603 490.352 581.75 491.02 581.75ZM503.227 587.318C502.417 587.318 501.721 587.214 501.138 587.006C500.556 586.802 500.071 586.532 499.683 586.196C499.299 585.865 498.994 585.509 498.766 585.131L500.102 584.193C500.253 584.392 500.445 584.619 500.677 584.875C500.909 585.135 501.226 585.36 501.629 585.55C502.036 585.744 502.568 585.841 503.227 585.841C504.107 585.841 504.834 585.628 505.407 585.202C505.98 584.776 506.266 584.108 506.266 583.199V580.983H506.124C506.001 581.182 505.826 581.428 505.599 581.722C505.376 582.01 505.054 582.268 504.633 582.496C504.216 582.718 503.653 582.83 502.942 582.83C502.062 582.83 501.271 582.621 500.57 582.205C499.874 581.788 499.323 581.182 498.915 580.386C498.513 579.591 498.312 578.625 498.312 577.489C498.312 576.371 498.508 575.398 498.901 574.57C499.294 573.736 499.841 573.092 500.542 572.638C501.243 572.179 502.052 571.949 502.971 571.949C503.681 571.949 504.245 572.067 504.661 572.304C505.083 572.536 505.405 572.801 505.627 573.099C505.854 573.393 506.03 573.634 506.153 573.824H506.323V572.091H507.942V583.312C507.942 584.25 507.729 585.012 507.303 585.599C506.882 586.191 506.314 586.625 505.599 586.899C504.888 587.179 504.098 587.318 503.227 587.318ZM503.17 581.324C503.842 581.324 504.41 581.17 504.874 580.862C505.338 580.554 505.691 580.112 505.933 579.534C506.174 578.956 506.295 578.265 506.295 577.46C506.295 576.674 506.176 575.981 505.94 575.379C505.703 574.778 505.353 574.307 504.888 573.966C504.424 573.625 503.852 573.455 503.17 573.455C502.46 573.455 501.868 573.634 501.394 573.994C500.925 574.354 500.573 574.837 500.336 575.443C500.104 576.049 499.988 576.722 499.988 577.46C499.988 578.218 500.106 578.888 500.343 579.47C500.585 580.048 500.94 580.502 501.408 580.834C501.882 581.161 502.469 581.324 503.17 581.324ZM515.585 583.227C514.533 583.227 513.627 582.995 512.864 582.531C512.107 582.062 511.522 581.409 511.11 580.571C510.703 579.728 510.499 578.748 510.499 577.631C510.499 576.513 510.703 575.528 511.11 574.676C511.522 573.819 512.095 573.152 512.829 572.673C513.567 572.19 514.429 571.949 515.414 571.949C515.982 571.949 516.543 572.044 517.097 572.233C517.651 572.422 518.156 572.73 518.61 573.156C519.065 573.578 519.427 574.136 519.697 574.832C519.967 575.528 520.102 576.385 520.102 577.403V578.114H511.692V576.665H518.397C518.397 576.049 518.274 575.5 518.028 575.017C517.786 574.534 517.441 574.153 516.991 573.874C516.546 573.594 516.02 573.455 515.414 573.455C514.746 573.455 514.169 573.62 513.681 573.952C513.198 574.278 512.826 574.705 512.566 575.23C512.306 575.756 512.175 576.319 512.175 576.92V577.886C512.175 578.71 512.317 579.409 512.602 579.982C512.89 580.55 513.29 580.983 513.802 581.281C514.313 581.575 514.907 581.722 515.585 581.722C516.025 581.722 516.423 581.66 516.778 581.537C517.138 581.409 517.448 581.22 517.708 580.969C517.969 580.713 518.17 580.396 518.312 580.017L519.931 580.472C519.761 581.021 519.474 581.504 519.072 581.92C518.669 582.332 518.172 582.654 517.58 582.886C516.988 583.114 516.323 583.227 515.585 583.227Z" fill="black"/>
<rect x="200" y="498" width="600" height="60" fill="#D9D9D9"/>
</svg>
